<svg width="36" height="36" fill="none" xmlns="http://www.w3.org/2000/svg"><path d="M16 23.145a4.68 4.68 0 100-9.36 4.68 4.68 0 000 9.36z" fill="url(#paint0_linear_55_975)"/><path d="M3.43 15.735c2.955-12.99 22.2-12.975 25.14.015 1.725 7.62-3.015 14.07-7.17 18.06-3.015 2.91-7.785 2.91-10.815 0-4.14-3.99-8.88-10.455-7.155-18.075z" fill="url(#paint1_linear_55_975)"/><path d="M18 20.145a4.68 4.68 0 100-9.36 4.68 4.68 0 000 9.36z" stroke="#292D32" stroke-width="2.25"/><path d="M5.43 12.735C8.385-.255 27.63-.24 30.57 12.75c1.725 7.62-3.015 14.07-7.17 18.06-3.015 2.91-7.785 2.91-10.815 0-4.14-3.99-8.88-10.455-7.155-18.075z" stroke="#292D32" stroke-width="2.25"/><defs><linearGradient id="paint0_linear_55_975" x1="17.811" y1="14.477" x2="-3.397" y2="21.537" gradientUnits="userSpaceOnUse"><stop stop-color="#FE9C00"/><stop offset="1" stop-color="#F56900"/></linearGradient><linearGradient id="paint1_linear_55_975" x1="21.002" y1="8.217" x2="-39.147" y2="25.488" gradientUnits="userSpaceOnUse"><stop stop-color="#FE9C00"/><stop offset="1" stop-color="#F56900"/></linearGradient></defs></svg>