<svg width="38" height="38" xmlns="http://www.w3.org/2000/svg" viewBox="0 0 38.8 38.8"><style>.st1{fill:none;stroke:#404040;stroke-width:2.25;stroke-linecap:round;stroke-linejoin:round}</style><g id="цвет"><linearGradient id="SVGID_1_" gradientUnits="userSpaceOnUse" x1="23.564" y1="20.707" x2="-36.452" y2="3.522" gradientTransform="matrix(1 0 0 -1 0 40.815)"><stop offset="0" stop-color="#fe9c00"/><stop offset="1" stop-color="#f56900"/></linearGradient><linearGradient id="SVGID_2_" gradientUnits="userSpaceOnUse" x1="23.564" y1="20.707" x2="-36.452" y2="3.522" gradientTransform="matrix(1 0 0 -1 0 40.815)"><stop offset="0" stop-color="#fe9c00"/><stop offset="1" stop-color="#f56900"/></linearGradient><path d="M13.3 7.8l-7.5 2.8c-1.7.6-3.1 2.7-3.1 4.5v11.1c0 1.8 1.2 4.1 2.6 5.2l6.5 4.8c2.1 1.6 5.6 1.6 7.7 0l6.4-4.8c1.4-1.1 2.6-3.4 2.6-5.2V15.1c0-1.8-1.4-3.9-3.1-4.5l-7.5-2.8c-1.3-.5-3.4-.5-4.6 0z" fill="url(#SVGID_1_)" stroke="url(#SVGID_2_)" stroke-width="2.25" stroke-linecap="round" stroke-linejoin="round"/></g><g id="Слой_1"><path class="st1" d="M17.1 4.8L9.7 7.6c-1.7.6-3.1 2.7-3.1 4.5v11.1c0 1.8 1.2 4.1 2.6 5.2l6.5 4.8c2.1 1.6 5.6 1.6 7.7 0l6.4-4.8c1.4-1.1 2.6-3.4 2.6-5.2V12.1c0-1.8-1.4-3.9-3.1-4.5l-7.5-2.8c-1.4-.5-3.4-.5-4.7 0z"/><path class="st1" d="M15 19.2l2.4 2.4 6.5-6.4"/></g></svg>