<svg width="38" height="38" xmlns="http://www.w3.org/2000/svg" viewBox="0 0 36 36"><linearGradient id="a" gradientUnits="userSpaceOnUse" x1="25.276" y1="27.321" x2="-9.594" y2="15.712" gradientTransform="matrix(1 0 0 -1 0 38)"><stop offset="0" stop-color="#fe9c00"/><stop offset="1" stop-color="#f56900"/></linearGradient><path d="M20.6 19.9c4.2 0 7.7-3.4 7.7-7.7 0-4.2-3.4-7.7-7.7-7.7-4.2 0-7.7 3.4-7.7 7.7 0 4.3 3.5 7.7 7.7 7.7z" fill="url(#a)"/><linearGradient id="b" gradientUnits="userSpaceOnUse" x1="9.415" y1="12.69" x2="-11.521" y2="5.72" gradientTransform="matrix(1 0 0 -1 0 38)"><stop offset="0" stop-color="#fe9c00"/><stop offset="1" stop-color="#f56900"/></linearGradient><path d="M6.6 30.9c2.6 0 4.6-2.1 4.6-4.6 0-2.6-2.1-4.6-4.6-4.6C4 21.7 2 23.8 2 26.3c0 2.5 2.1 4.6 4.6 4.6z" fill="url(#b)"/><linearGradient id="c" gradientUnits="userSpaceOnUse" x1="24.633" y1="7.598" x2="7.231" y2="1.804" gradientTransform="matrix(1 0 0 -1 0 38)"><stop offset="0" stop-color="#fe9c00"/><stop offset="1" stop-color="#f56900"/></linearGradient><path d="M22.3 35c2.1 0 3.8-1.7 3.8-3.8 0-2.1-1.7-3.8-3.8-3.8s-3.8 1.7-3.8 3.8c0 2.1 1.7 3.8 3.8 3.8z" fill="url(#c)"/><g fill="none" stroke-width="2.25" stroke-miterlimit="10"><path d="M23.4 18.4c4.2 0 7.7-3.4 7.7-7.7 0-4.2-3.4-7.7-7.7-7.7-4.2 0-7.7 3.4-7.7 7.7 0 4.2 3.4 7.7 7.7 7.7zM9.5 29.2c2.6 0 4.6-2.1 4.6-4.6C14.1 22 12 20 9.5 20c-2.6 0-4.6 2.1-4.6 4.6 0 2.5 2.1 4.6 4.6 4.6z" stroke="#292d32"/><path d="M24.9 33c2.1 0 3.8-1.7 3.8-3.8 0-2.1-1.7-3.8-3.8-3.8s-3.8 1.7-3.8 3.8c0 2.1 1.7 3.8 3.8 3.8z" stroke="#404040"/></g></svg>