<svg width="38" height="38" xmlns="http://www.w3.org/2000/svg" viewBox="0 0 36 36"><style>.st2{fill:none;stroke:#404040;stroke-width:2.25;stroke-linecap:round;stroke-linejoin:round;stroke-miterlimit:10}</style><g id="цвет"><linearGradient id="SVGID_1_" gradientUnits="userSpaceOnUse" x1="24.669" y1="22.487" x2="-39.699" y2="-4.011" gradientTransform="matrix(1 0 0 -1 0 38)"><stop offset="0" stop-color="#fe9c00"/><stop offset="1" stop-color="#f56900"/></linearGradient><path d="M28.1 28c-1.5 1.4-3.4 2.1-5.5 2.1H6c-7-.5-7-10.7 0-11.2h.1C2 7.6 15.9 2 21.7 9c1 1.3 1.8 3 2.2 5.2 2 .3 3.6 1.2 4.8 2.6 2.6 3.1 2.8 8.2-.6 11.2z" fill="url(#SVGID_1_)"/><linearGradient id="SVGID_2_" gradientUnits="userSpaceOnUse" x1="28.92" y1="25.962" x2="8.463" y2="19.436" gradientTransform="matrix(1 0 0 -1 0 38)"><stop offset="0" stop-color="#fe9c00"/><stop offset="1" stop-color="#f56900"/></linearGradient><path d="M30.6 13.4c0 1.6-.8 3.1-2 4.1-1.2-1.4-2.8-2.4-4.8-2.6-.4-2.2-1.2-3.9-2.2-5.2.9-1 2.3-1.5 3.7-1.5 3-.1 5.3 2.3 5.3 5.2z" fill="url(#SVGID_2_)"/></g><g id="Слой_1"><path class="st2" d="M31.1 26.5c-1.5 1.4-3.4 2.1-5.5 2.1H9c-7-.5-7-10.7 0-11.2h.1C5.1 6.1 18.9.5 24.7 7.6c1 1.3 1.8 3 2.2 5.2 2 .3 3.6 1.2 4.8 2.6 2.6 3.1 2.8 8.1-.6 11.1zM11.6 18c-.8-.4-1.6-.6-2.5-.6m15.4-4c.8-.4 1.6-.6 2.5-.6"/><path class="st2" d="M33.7 11.3c0 1.6-.8 3.1-2 4.1-1.2-1.4-2.8-2.4-4.8-2.6-.4-2.2-1.2-3.9-2.2-5.2 1-1 2.3-1.6 3.7-1.6 2.9 0 5.3 2.4 5.3 5.3z"/></g></svg>