<svg width="39" height="38" fill="none" xmlns="http://www.w3.org/2000/svg"><path d="M13.53 6.26l-8.085 6.3C4.095 13.61 3 15.845 3 17.54v11.115c0 3.48 2.835 6.33 6.315 6.33h17.37c3.48 0 6.315-2.85 6.315-6.315V17.75c0-1.815-1.215-4.14-2.7-5.175L21.03 6.08c-2.1-1.47-5.475-1.395-7.5.18z" fill="url(#paint0_linear_61_3444)"/><path d="M15.75 29h4.5c2.475 0 4.5-2.025 4.5-4.5V20c0-2.475-2.025-4.5-4.5-4.5h-4.5a4.513 4.513 0 00-4.5 4.5v4.5c0 2.475 2.025 4.5 4.5 4.5z" fill="url(#paint1_linear_61_3444)"/><path d="M16.53 4.26l-8.085 6.3C7.095 11.61 6 13.845 6 15.54v11.115c0 3.48 2.835 6.33 6.315 6.33h17.37c3.48 0 6.315-2.85 6.315-6.315V15.75c0-1.815-1.215-4.14-2.7-5.175L24.03 4.08c-2.1-1.47-5.475-1.395-7.5.18z" stroke="#404040" stroke-width="2.25" stroke-linecap="round" stroke-linejoin="round"/><path d="M18.75 27h4.5c2.475 0 4.5-2.025 4.5-4.5V18c0-2.475-2.025-4.5-4.5-4.5h-4.5a4.513 4.513 0 00-4.5 4.5v4.5c0 2.475 2.025 4.5 4.5 4.5zM21 13.5V27m-6.75-6.75h13.5" stroke="#404040" stroke-width="2.25" stroke-linecap="round" stroke-linejoin="round"/><defs><linearGradient id="paint0_linear_61_3444" x1="23.802" y1="7.241" x2="-44.153" y2="29.895" gradientUnits="userSpaceOnUse"><stop stop-color="#FE9C00"/><stop offset="1" stop-color="#F56900"/></linearGradient><linearGradient id="paint1_linear_61_3444" x1="20.611" y1="16.498" x2="-9.977" y2="26.681" gradientUnits="userSpaceOnUse"><stop stop-color="#FE9C00"/><stop offset="1" stop-color="#F56900"/></linearGradient></defs></svg>