<svg width="38" height="38" fill="none" xmlns="http://www.w3.org/2000/svg"><path d="M20.145 24.5H6.601c-2.73 0-4.47-2.925-3.15-5.325l3.495-6.36 3.27-5.955c1.365-2.475 4.934-2.475 6.3 0l3.285 5.955 1.575 2.865 1.92 3.495c1.32 2.4-.42 5.325-3.15 5.325z" fill="url(#paint0_linear_61_3436)"/><path d="M33 25.25A9.75 9.75 0 0123.25 35a9.75 9.75 0 01-9.75-9.75c0-.255.015-.495.03-.75h6.615c2.73 0 4.47-2.925 3.15-5.325l-1.92-3.495c.6-.12 1.23-.18 1.875-.18A9.75 9.75 0 0133 25.25z" fill="url(#paint1_linear_61_3436)"/><path d="M22.145 22.5H8.601c-2.73 0-4.47-2.925-3.15-5.325l3.495-6.36 3.27-5.955c1.365-2.475 4.935-2.475 6.3 0l3.285 5.955 1.575 2.865 1.92 3.495c1.32 2.4-.42 5.325-3.15 5.325z" stroke="#404040" stroke-width="2.25" stroke-linecap="round" stroke-linejoin="round"/><path d="M35 23.25A9.75 9.75 0 0125.25 33a9.75 9.75 0 01-9.75-9.75c0-.255.015-.495.03-.75h6.615c2.73 0 4.47-2.925 3.15-5.325l-1.92-3.495c.6-.12 1.23-.18 1.875-.18A9.75 9.75 0 0135 23.25z" stroke="#404040" stroke-width="2.25" stroke-linecap="round" stroke-linejoin="round"/><defs><linearGradient id="paint0_linear_61_3436" x1="17.385" y1="6.445" x2="-29.008" y2="22.88" gradientUnits="userSpaceOnUse"><stop stop-color="#FE9C00"/><stop offset="1" stop-color="#F56900"/></linearGradient><linearGradient id="paint1_linear_61_3436" x1="27.021" y1="16.942" x2="-17.162" y2="31.651" gradientUnits="userSpaceOnUse"><stop stop-color="#FE9C00"/><stop offset="1" stop-color="#F56900"/></linearGradient></defs></svg>