<svg width="38" height="38" fill="none" xmlns="http://www.w3.org/2000/svg"><path d="M30.5 23.5c0 6.348-5.376 11.5-12 11.5s-12-5.152-12-11.5S11.876 12 18.5 12s12 5.152 12 11.5z" fill="url(#paint0_linear_61_3454)"/><path d="M32.5 21.5c0 6.348-5.376 11.5-12 11.5s-12-5.152-12-11.5S13.876 10 20.5 10s12 5.152 12 11.5zm-12-7.5v7.083" stroke="#404040" stroke-width="2.125" stroke-linecap="round" stroke-linejoin="round"/><path d="M16.25 5.833h8.5" stroke="#404040" stroke-width="2.125" stroke-miterlimit="10" stroke-linecap="round" stroke-linejoin="round"/><path d="M1 19h8m-6 4h5m-2 4h4" stroke="#404040" stroke-width="1.417" stroke-linecap="round"/><defs><linearGradient id="paint0_linear_61_3454" x1="23.141" y1="13.7" x2="-30.759" y2="32.425" gradientUnits="userSpaceOnUse"><stop stop-color="#FE9C00"/><stop offset="1" stop-color="#F56900"/></linearGradient></defs></svg>