<svg width="36" height="36" viewBox="0 0 36 36" fill="none" xmlns="http://www.w3.org/2000/svg">
<path d="M10.53 7.26L2.445 13.56C1.095 14.61 0 16.845 0 18.54V29.655C0 33.135 2.835 35.985 6.315 35.985H23.685C27.165 35.985 30 33.135 30 29.67V18.75C30 16.935 28.785 14.61 27.3 13.575L18.03 7.08C15.93 5.61 12.555 5.685 10.53 7.26Z" fill="url(#paint0_linear_1_1324)"/>
<path d="M13.53 4.26L5.445 10.56C4.095 11.61 3 13.845 3 15.54V26.655C3 30.135 5.835 32.985 9.315 32.985H26.685C30.165 32.985 33 30.135 33 26.67V15.75C33 13.935 31.785 11.61 30.3 10.575L21.03 4.08C18.93 2.61 15.555 2.685 13.53 4.26Z" stroke="#292D32" stroke-width="2.25" stroke-linecap="round" stroke-linejoin="round"/>
<path d="M18 26.9851V22.4851" stroke="#292D32" stroke-width="2.25" stroke-linecap="round" stroke-linejoin="round"/>
<defs>
<linearGradient id="paint0_linear_1_1324" x1="20.8017" y1="8.24108" x2="-47.1531" y2="30.8955" gradientUnits="userSpaceOnUse">
<stop stop-color="#FE9C00"/>
<stop offset="1" stop-color="#F56900"/>
</linearGradient>
</defs>
</svg>
