<svg width="37" height="36" viewBox="0 0 37 36" fill="none" xmlns="http://www.w3.org/2000/svg">
<path d="M23.4551 21.375V28.125C23.4551 33.75 21.2051 36 15.5801 36H8.83008C3.20508 36 0.955078 33.75 0.955078 28.125V21.375C0.955078 15.75 3.20508 13.5 8.83008 13.5H15.5801C21.2051 13.5 23.4551 15.75 23.4551 21.375Z" fill="url(#paint0_linear_1_1311)"/>
<path d="M30.9551 11.775V16.725C30.9551 20.85 29.3051 22.5 25.1801 22.5H23.4551V21.375C23.4551 15.75 21.2051 13.5 15.5801 13.5H14.4551V11.775C14.4551 7.65 16.1051 6 20.2301 6H25.1801C29.3051 6 30.9551 7.65 30.9551 11.775Z" fill="url(#paint1_linear_1_1311)"/>
<path d="M26.4551 18.375V25.125C26.4551 30.75 24.2051 33 18.5801 33H11.8301C6.20508 33 3.95508 30.75 3.95508 25.125V18.375C3.95508 12.75 6.20508 10.5 11.8301 10.5H18.5801C24.2051 10.5 26.4551 12.75 26.4551 18.375Z" stroke="#292D32" stroke-width="2.25" stroke-linecap="round" stroke-linejoin="round"/>
<path d="M33.9551 8.775V13.725C33.9551 17.85 32.3051 19.5 28.1801 19.5H26.4551V18.375C26.4551 12.75 24.2051 10.5 18.5801 10.5H17.4551V8.775C17.4551 4.65 19.1051 3 23.2301 3H28.1801C32.3051 3 33.9551 4.65 33.9551 8.775Z" stroke="#292D32" stroke-width="2.25" stroke-linecap="round" stroke-linejoin="round"/>
<defs>
<linearGradient id="paint0_linear_1_1311" x1="16.5564" y1="15.1635" x2="-34.4237" y2="32.1357" gradientUnits="userSpaceOnUse">
<stop stop-color="#FE9C00"/>
<stop offset="1" stop-color="#F56900"/>
</linearGradient>
<linearGradient id="paint1_linear_1_1311" x1="25.896" y1="7.2199" x2="-11.4893" y2="19.6662" gradientUnits="userSpaceOnUse">
<stop stop-color="#FE9C00"/>
<stop offset="1" stop-color="#F56900"/>
</linearGradient>
</defs>
</svg>
