<svg width="36" height="36" viewBox="0 0 36 36" fill="none" xmlns="http://www.w3.org/2000/svg">
<path d="M13.75 32.85V9.15C13.75 6.9 12.79 6 10.405 6H4.345C1.96 6 1 6.9 1 9.15V32.85C1 35.1 1.96 36 4.345 36H10.405C12.79 36 13.75 35.1 13.75 32.85Z" fill="url(#paint0_linear_1_1289)"/>
<path d="M31 19.35V9.15C31 6.9 30.04 6 27.655 6H21.595C19.21 6 18.25 6.9 18.25 9.15V19.35C18.25 21.6 19.21 22.5 21.595 22.5H27.655C30.04 22.5 31 21.6 31 19.35Z" fill="url(#paint1_linear_1_1289)"/>
<path d="M31 32.85V30.15C31 27.9 30.04 27 27.655 27H21.595C19.21 27 18.25 27.9 18.25 30.15V32.85C18.25 35.1 19.21 36 21.595 36H27.655C30.04 36 31 35.1 31 32.85Z" fill="url(#paint2_linear_1_1289)"/>
<path d="M15.75 29.85V6.15C15.75 3.9 14.79 3 12.405 3H6.345C3.96 3 3 3.9 3 6.15V29.85C3 32.1 3.96 33 6.345 33H12.405C14.79 33 15.75 32.1 15.75 29.85Z" stroke="#404040" stroke-width="2.25" stroke-linecap="round" stroke-linejoin="round"/>
<path d="M33 16.35V6.15C33 3.9 32.04 3 29.655 3H23.595C21.21 3 20.25 3.9 20.25 6.15V16.35C20.25 18.6 21.21 19.5 23.595 19.5H29.655C32.04 19.5 33 18.6 33 16.35Z" stroke="#404040" stroke-width="2.25" stroke-linecap="round" stroke-linejoin="round"/>
<path d="M33 29.85V27.15C33 24.9 32.04 24 29.655 24H23.595C21.21 24 20.25 24.9 20.25 27.15V29.85C20.25 32.1 21.21 33 23.595 33H29.655C32.04 33 33 32.1 33 29.85Z" stroke="#404040" stroke-width="2.25" stroke-linecap="round" stroke-linejoin="round"/>
<defs>
<linearGradient id="paint0_linear_1_1289" x1="9.84074" y1="8.218" x2="-21.62" y2="12.6694" gradientUnits="userSpaceOnUse">
<stop stop-color="#FE9C00"/>
<stop offset="1" stop-color="#F56900"/>
</linearGradient>
<linearGradient id="paint1_linear_1_1289" x1="27.0907" y1="7.2199" x2="-3.0079" y2="14.9629" gradientUnits="userSpaceOnUse">
<stop stop-color="#FE9C00"/>
<stop offset="1" stop-color="#F56900"/>
</linearGradient>
<linearGradient id="paint2_linear_1_1289" x1="27.0907" y1="27.6654" x2="0.839465" y2="40.0464" gradientUnits="userSpaceOnUse">
<stop stop-color="#FE9C00"/>
<stop offset="1" stop-color="#F56900"/>
</linearGradient>
</defs>
</svg>
