<svg width="36" height="36" viewBox="0 0 36 36" fill="none" xmlns="http://www.w3.org/2000/svg">
<path d="M16 25.5C18.4853 25.5 20.5 23.4853 20.5 21C20.5 18.5147 18.4853 16.5 16 16.5C13.5147 16.5 11.5 18.5147 11.5 21C11.5 23.4853 13.5147 25.5 16 25.5Z" fill="url(#paint0_linear_162_94)"/>
<path d="M1 22.3199V19.6799C1 18.1199 2.275 16.8299 3.85 16.8299C6.565 16.8299 7.675 14.9099 6.31 12.5549C5.53 11.2049 5.995 9.4499 7.36 8.6699L9.955 7.1849C11.14 6.4799 12.67 6.8999 13.375 8.0849L13.54 8.3699C14.89 10.7249 17.11 10.7249 18.475 8.3699L18.64 8.0849C19.345 6.8999 20.875 6.4799 22.06 7.1849L24.655 8.6699C26.02 9.4499 26.485 11.2049 25.705 12.5549C24.34 14.9099 25.45 16.8299 28.165 16.8299C29.725 16.8299 31.015 18.1049 31.015 19.6799V22.3199C31.015 23.8799 29.74 25.1699 28.165 25.1699C25.45 25.1699 24.34 27.0899 25.705 29.4449C26.485 30.8099 26.02 32.5499 24.655 33.3299L22.06 34.8149C20.875 35.5199 19.345 35.0999 18.64 33.9149L18.475 33.6299C17.125 31.2749 14.905 31.2749 13.54 33.6299L13.375 33.9149C12.67 35.0999 11.14 35.5199 9.955 34.8149L7.36 33.3299C5.995 32.5499 5.53 30.7949 6.31 29.4449C7.675 27.0899 6.565 25.1699 3.85 25.1699C2.275 25.1699 1 23.8799 1 22.3199Z" fill="url(#paint1_linear_162_94)"/>
<path d="M18 22.5C20.4853 22.5 22.5 20.4853 22.5 18C22.5 15.5147 20.4853 13.5 18 13.5C15.5147 13.5 13.5 15.5147 13.5 18C13.5 20.4853 15.5147 22.5 18 22.5Z" stroke="#404040" stroke-width="2.25" stroke-miterlimit="10" stroke-linecap="round" stroke-linejoin="round"/>
<path d="M3 19.3199V16.6799C3 15.1199 4.275 13.8299 5.85 13.8299C8.565 13.8299 9.675 11.9099 8.31 9.5549C7.53 8.2049 7.995 6.4499 9.36 5.6699L11.955 4.1849C13.14 3.4799 14.67 3.8999 15.375 5.0849L15.54 5.3699C16.89 7.7249 19.11 7.7249 20.475 5.3699L20.64 5.0849C21.345 3.8999 22.875 3.4799 24.06 4.1849L26.655 5.6699C28.02 6.4499 28.485 8.2049 27.705 9.5549C26.34 11.9099 27.45 13.8299 30.165 13.8299C31.725 13.8299 33.015 15.1049 33.015 16.6799V19.3199C33.015 20.8799 31.74 22.1699 30.165 22.1699C27.45 22.1699 26.34 24.0899 27.705 26.4449C28.485 27.8099 28.02 29.5499 26.655 30.3299L24.06 31.8149C22.875 32.5199 21.345 32.0999 20.64 30.9149L20.475 30.6299C19.125 28.2749 16.905 28.2749 15.54 30.6299L15.375 30.9149C14.67 32.0999 13.14 32.5199 11.955 31.8149L9.36 30.3299C7.995 29.5499 7.53 27.7949 8.31 26.4449C9.675 24.0899 8.565 22.1699 5.85 22.1699C4.275 22.1699 3 20.8799 3 19.3199Z" stroke="#404040" stroke-width="2.25" stroke-miterlimit="10" stroke-linecap="round" stroke-linejoin="round"/>
<defs>
<linearGradient id="paint0_linear_162_94" x1="17.7405" y1="17.1654" x2="-2.6515" y2="23.9543" gradientUnits="userSpaceOnUse">
<stop stop-color="#FE9C00"/>
<stop offset="1" stop-color="#F56900"/>
</linearGradient>
<linearGradient id="paint1_linear_162_94" x1="21.8121" y1="8.9351" x2="-45.3671" y2="32.6416" gradientUnits="userSpaceOnUse">
<stop stop-color="#FE9C00"/>
<stop offset="1" stop-color="#F56900"/>
</linearGradient>
</defs>
</svg>
