<svg width="36" height="36" fill="none" xmlns="http://www.w3.org/2000/svg"><path d="M2.755 14.16L16 21.825l13.155-7.62" fill="url(#paint0_linear_218_82)"/><path d="M2.755 14.16L16 21.825l13.155-7.62" fill="url(#paint1_linear_218_82)"/><path d="M12.895 6.72l-8.01 4.44c-1.815 1.005-3.3 3.525-3.3 5.595v8.475c0 2.07 1.485 4.59 3.3 5.595l8.01 4.455c1.71.945 4.515.945 6.225 0l8.01-4.455c1.815-1.005 3.3-3.525 3.3-5.595v-8.475c0-2.07-1.485-4.59-3.3-5.595l-8.01-4.455c-1.725-.945-4.515-.945-6.225.015z" fill="url(#paint2_linear_218_82)"/><path d="M12.895 6.72l-8.01 4.44c-1.815 1.005-3.3 3.525-3.3 5.595v8.475c0 2.07 1.485 4.59 3.3 5.595l8.01 4.455c1.71.945 4.515.945 6.225 0l8.01-4.455c1.815-1.005 3.3-3.525 3.3-5.595v-8.475c0-2.07-1.485-4.59-3.3-5.595l-8.01-4.455c-1.725-.945-4.515-.945-6.225.015z" fill="url(#paint3_linear_218_82)"/><path d="M4.755 11.16L18 18.825l13.155-7.62" stroke="#404040" stroke-width="2.25" stroke-linecap="round" stroke-linejoin="round"/><path d="M4.755 11.16L18 18.825l13.155-7.62M18 32.415V18.81m0 13.605V18.81" stroke="#404040" stroke-width="2.25" stroke-linecap="round" stroke-linejoin="round"/><path d="M14.895 3.72l-8.01 4.44c-1.815 1.005-3.3 3.525-3.3 5.595v8.475c0 2.07 1.485 4.59 3.3 5.595l8.01 4.455c1.71.945 4.515.945 6.225 0l8.01-4.455c1.815-1.005 3.3-3.525 3.3-5.595v-8.475c0-2.07-1.485-4.59-3.3-5.595l-8.01-4.455c-1.725-.945-4.515-.945-6.225.015z" stroke="#404040" stroke-width="2.25" stroke-linecap="round" stroke-linejoin="round"/><path d="M14.895 3.72l-8.01 4.44c-1.815 1.005-3.3 3.525-3.3 5.595v8.475c0 2.07 1.485 4.59 3.3 5.595l8.01 4.455c1.71.945 4.515.945 6.225 0l8.01-4.455c1.815-1.005 3.3-3.525 3.3-5.595v-8.475c0-2.07-1.485-4.59-3.3-5.595l-8.01-4.455c-1.725-.945-4.515-.945-6.225.015z" stroke="#404040" stroke-width="2.25" stroke-linecap="round" stroke-linejoin="round"/><defs><linearGradient id="paint0_linear_218_82" x1="21.06" y1="14.727" x2="-7.645" y2="47.641" gradientUnits="userSpaceOnUse"><stop stop-color="#FE9C00"/><stop offset="1" stop-color="#F56900"/></linearGradient><linearGradient id="paint1_linear_218_82" x1="21.06" y1="14.727" x2="-7.645" y2="47.641" gradientUnits="userSpaceOnUse"><stop stop-color="#FE9C00"/><stop offset="1" stop-color="#F56900"/></linearGradient><linearGradient id="paint2_linear_218_82" x1="21.586" y1="8.215" x2="-44.263" y2="29.3" gradientUnits="userSpaceOnUse"><stop stop-color="#FE9C00"/><stop offset="1" stop-color="#F56900"/></linearGradient><linearGradient id="paint3_linear_218_82" x1="21.586" y1="8.215" x2="-44.263" y2="29.3" gradientUnits="userSpaceOnUse"><stop stop-color="#FE9C00"/><stop offset="1" stop-color="#F56900"/></linearGradient></defs></svg>