<svg width="37" height="36" fill="none" xmlns="http://www.w3.org/2000/svg"><path d="M15.322 33.75H7.657c-5.325 0-6.675-1.32-6.675-6.585v-12.33c0-4.77 1.11-6.3 5.295-6.54.42-.015.885-.03 1.38-.03h16.665c5.325 0 6.675 1.32 6.675 6.585v6.615" fill="url(#paint0_linear_218_189)"/><path d="M31 30c0 1.125-.315 2.19-.87 3.09A5.955 5.955 0 0125 36a5.955 5.955 0 01-5.13-2.91A5.881 5.881 0 0119 30c0-3.315 2.685-6 6-6s6 2.685 6 6z" fill="url(#paint1_linear_218_189)"/><path d="M22.662 30l1.485 1.484 3.195-2.955" fill="url(#paint2_linear_218_189)"/><path d="M4 15h30" stroke="#404040" stroke-width="2.25" stroke-miterlimit="10" stroke-linecap="round" stroke-linejoin="round"/><path d="M18.322 30.75h-7.665c-5.325 0-6.675-1.32-6.675-6.585v-12.33c0-4.77 1.11-6.3 5.295-6.54.42-.015.885-.03 1.38-.03h16.665c5.325 0 6.675 1.32 6.675 6.585v6.615" stroke="#404040" stroke-width="2.25" stroke-linecap="round" stroke-linejoin="round"/><path d="M10 24h6m18 3c0 1.125-.315 2.19-.87 3.09A5.955 5.955 0 0128 33a5.955 5.955 0 01-5.13-2.91A5.881 5.881 0 0122 27c0-3.315 2.685-6 6-6s6 2.685 6 6z" stroke="#404040" stroke-width="2.25" stroke-miterlimit="10" stroke-linecap="round" stroke-linejoin="round"/><path d="M25.662 27l1.485 1.484 3.195-2.955" stroke="#404040" stroke-width="2.25" stroke-linecap="round" stroke-linejoin="round"/><defs><linearGradient id="paint0_linear_218_189" x1="21.795" y1="10.149" x2="-43.684" y2="35.823" gradientUnits="userSpaceOnUse"><stop stop-color="#FE9C00"/><stop offset="1" stop-color="#F56900"/></linearGradient><linearGradient id="paint1_linear_218_189" x1="27.321" y1="24.887" x2=".131" y2="33.939" gradientUnits="userSpaceOnUse"><stop stop-color="#FE9C00"/><stop offset="1" stop-color="#F56900"/></linearGradient><linearGradient id="paint2_linear_218_189" x1="25.907" y1="28.748" x2="16.69" y2="33.607" gradientUnits="userSpaceOnUse"><stop stop-color="#FE9C00"/><stop offset="1" stop-color="#F56900"/></linearGradient></defs></svg>