<svg width="36" height="36" fill="none" xmlns="http://www.w3.org/2000/svg"><path d="M13.75 32.85V9.15c0-2.25-.96-3.15-3.345-3.15h-6.06C1.96 6 1 6.9 1 9.15v23.7C1 35.1 1.96 36 4.345 36h6.06c2.385 0 3.345-.9 3.345-3.15z" fill="url(#paint0_linear_41_791)"/><path d="M31 15.78V8.97C31 6.855 30.04 6 27.655 6h-6.06c-2.385 0-3.345.855-3.345 2.97v6.795c0 2.13.96 2.97 3.345 2.97h6.06C30.04 18.75 31 17.895 31 15.78z" fill="url(#paint1_linear_41_791)"/><path d="M31 32.655v-6.06c0-2.385-.96-3.345-3.345-3.345h-6.06c-2.385 0-3.345.96-3.345 3.345v6.06c0 2.385.96 3.345 3.345 3.345h6.06C30.04 36 31 35.04 31 32.655z" fill="url(#paint2_linear_41_791)"/><path d="M15.75 29.85V6.15c0-2.25-.96-3.15-3.345-3.15h-6.06C3.96 3 3 3.9 3 6.15v23.7C3 32.1 3.96 33 6.345 33h6.06c2.385 0 3.345-.9 3.345-3.15zM33 12.78V5.97C33 3.855 32.04 3 29.655 3h-6.06c-2.385 0-3.345.855-3.345 2.97v6.795c0 2.13.96 2.97 3.345 2.97h6.06C32.04 15.75 33 14.895 33 12.78zm0 16.875v-6.06c0-2.385-.96-3.345-3.345-3.345h-6.06c-2.385 0-3.345.96-3.345 3.345v6.06c0 2.385.96 3.345 3.345 3.345h6.06C32.04 33 33 32.04 33 29.655z" stroke="#404040" stroke-width="2.25" stroke-linecap="round" stroke-linejoin="round"/><defs><linearGradient id="paint0_linear_41_791" x1="9.841" y1="8.218" x2="-21.62" y2="12.669" gradientUnits="userSpaceOnUse"><stop stop-color="#FE9C00"/><stop offset="1" stop-color="#F56900"/></linearGradient><linearGradient id="paint1_linear_41_791" x1="27.091" y1="6.942" x2="-1.791" y2="16.568" gradientUnits="userSpaceOnUse"><stop stop-color="#FE9C00"/><stop offset="1" stop-color="#F56900"/></linearGradient><linearGradient id="paint2_linear_41_791" x1="27.091" y1="24.193" x2="-1.798" y2="33.81" gradientUnits="userSpaceOnUse"><stop stop-color="#FE9C00"/><stop offset="1" stop-color="#F56900"/></linearGradient></defs></svg>