<svg width="36" height="36" fill="none" xmlns="http://www.w3.org/2000/svg"><path d="M13.75 32.85V9.15c0-2.25-.96-3.15-3.345-3.15h-6.06C1.96 6 1 6.9 1 9.15v23.7C1 35.1 1.96 36 4.345 36h6.06c2.385 0 3.345-.9 3.345-3.15z" fill="url(#paint0_linear_41_805)"/><path d="M31 32.85V9.15C31 6.9 30.04 6 27.655 6h-6.06c-2.385 0-3.345.9-3.345 3.15v23.7c0 2.25.96 3.15 3.345 3.15h6.06C30.04 36 31 35.1 31 32.85z" fill="url(#paint1_linear_41_805)"/><path d="M15.75 29.85V6.15c0-2.25-.96-3.15-3.345-3.15h-6.06C3.96 3 3 3.9 3 6.15v23.7C3 32.1 3.96 33 6.345 33h6.06c2.385 0 3.345-.9 3.345-3.15zm17.25 0V6.15C33 3.9 32.04 3 29.655 3h-6.06c-2.385 0-3.345.9-3.345 3.15v23.7c0 2.25.96 3.15 3.345 3.15h6.06C32.04 33 33 32.1 33 29.85z" stroke="#404040" stroke-width="2.25" stroke-linecap="round" stroke-linejoin="round"/><defs><linearGradient id="paint0_linear_41_805" x1="9.841" y1="8.218" x2="-21.62" y2="12.669" gradientUnits="userSpaceOnUse"><stop stop-color="#FE9C00"/><stop offset="1" stop-color="#F56900"/></linearGradient><linearGradient id="paint1_linear_41_805" x1="27.091" y1="8.218" x2="-4.37" y2="12.669" gradientUnits="userSpaceOnUse"><stop stop-color="#FE9C00"/><stop offset="1" stop-color="#F56900"/></linearGradient></defs></svg>