<svg width="36" height="36" fill="none" xmlns="http://www.w3.org/2000/svg"><path d="M19 27a8.92 8.92 0 01-3 6.69A8.896 8.896 0 0110 36c-4.965 0-9-4.035-9-9 0-4.14 2.82-7.65 6.63-8.685a9.028 9.028 0 006 5.37c.75.21 1.545.315 2.37.315.825 0 1.62-.105 2.37-.315A8.99 8.99 0 0119 27z" fill="url(#paint0_linear_218_2)"/><path d="M25 15a8.99 8.99 0 01-.63 3.315 9.028 9.028 0 01-6 5.37c-.75.21-1.545.315-2.37.315-.825 0-1.62-.105-2.37-.315a9.028 9.028 0 01-6-5.37A8.99 8.99 0 017 15c0-4.965 4.035-9 9-9s9 4.035 9 9z" fill="url(#paint1_linear_218_2)"/><path d="M31 27c0 4.965-4.035 9-9 9-2.31 0-4.41-.87-6-2.31A8.92 8.92 0 0019 27a8.99 8.99 0 00-.63-3.315 9.028 9.028 0 006-5.37C28.18 19.35 31 22.86 31 27z" fill="url(#paint2_linear_218_2)"/><path d="M21 24a8.92 8.92 0 01-3 6.69A8.896 8.896 0 0112 33c-4.965 0-9-4.035-9-9 0-4.14 2.82-7.65 6.63-8.685a9.028 9.028 0 006 5.37c.75.21 1.545.315 2.37.315.825 0 1.62-.105 2.37-.315A8.99 8.99 0 0121 24z" stroke="#404040" stroke-width="2.25" stroke-linecap="round" stroke-linejoin="round"/><path d="M27 12a8.99 8.99 0 01-.63 3.315 9.028 9.028 0 01-6 5.37c-.75.21-1.545.315-2.37.315-.825 0-1.62-.105-2.37-.315a9.028 9.028 0 01-6-5.37A8.99 8.99 0 019 12c0-4.965 4.035-9 9-9s9 4.035 9 9z" stroke="#404040" stroke-width="2.25" stroke-linecap="round" stroke-linejoin="round"/><path d="M33 24c0 4.965-4.035 9-9 9-2.31 0-4.41-.87-6-2.31A8.92 8.92 0 0021 24a8.99 8.99 0 00-.63-3.315 9.028 9.028 0 006-5.37C30.18 16.35 33 19.86 33 24z" stroke="#404040" stroke-width="2.25" stroke-linecap="round" stroke-linejoin="round"/><defs><linearGradient id="paint0_linear_218_2" x1="13.481" y1="19.622" x2="-27.157" y2="33.393" gradientUnits="userSpaceOnUse"><stop stop-color="#FE9C00"/><stop offset="1" stop-color="#F56900"/></linearGradient><linearGradient id="paint1_linear_218_2" x1="19.481" y1="7.331" x2="-21.303" y2="20.909" gradientUnits="userSpaceOnUse"><stop stop-color="#FE9C00"/><stop offset="1" stop-color="#F56900"/></linearGradient><linearGradient id="paint2_linear_218_2" x1="26.401" y1="19.622" x2="-8.565" y2="29.496" gradientUnits="userSpaceOnUse"><stop stop-color="#FE9C00"/><stop offset="1" stop-color="#F56900"/></linearGradient></defs></svg>