<svg width="36" height="36" fill="none" xmlns="http://www.w3.org/2000/svg"><path d="M21 1C12.716 1 6 7.716 6 16c0 8.284 6.716 15 15 15 8.284 0 15-6.716 15-15 0-8.284-6.716-15-15-15z" fill="url(#paint0_linear_340_47)"/><path d="M18 3C9.716 3 3 9.716 3 18c0 8.284 6.716 15 15 15 8.284 0 15-6.716 15-15 0-8.284-6.716-15-15-15zm0 20.25v-9" stroke="#404040" stroke-width="2.25" stroke-linecap="round" stroke-linejoin="round"/><path d="M22.5 17.25l-4.5-4.5-4.5 4.5" stroke="#404040" stroke-width="2.25" stroke-linecap="round" stroke-linejoin="round"/><defs><linearGradient id="paint0_linear_340_47" x1="15.198" y1="28.782" x2="83.172" y2="6.152" gradientUnits="userSpaceOnUse"><stop stop-color="#FE9C00"/><stop offset="1" stop-color="#F56900"/></linearGradient></defs></svg>