<svg width="80" height="80" fill="none" xmlns="http://www.w3.org/2000/svg"><path d="M63.988 41.352c0 16.3-11.833 31.567-28 36.034-1.1.3-2.3.3-3.4 0-16.167-4.467-28-19.734-28-36.034V26.72c0-2.733 2.067-5.833 4.633-6.867l18.567-7.6a17.29 17.29 0 0113.033 0l18.567 7.6c2.533 1.034 4.633 4.134 4.633 6.867l-.033 14.633z" fill="url(#paint0_linear_75_1880)"/><path d="M69.7 37.067c0 16.3-11.833 31.566-28 36.033-1.1.3-2.3.3-3.4 0-16.166-4.467-28-19.733-28-36.033V22.433c0-2.733 2.067-5.833 4.634-6.866l18.567-7.6a17.29 17.29 0 0113.033 0l18.567 7.6c2.533 1.033 4.633 4.133 4.633 6.866l-.033 14.634z" stroke="#404040" stroke-width="5" stroke-linecap="round" stroke-linejoin="round"/><path d="M24 42.5h24.75A5.256 5.256 0 0154 47.75 5.256 5.256 0 0148.75 53a5.256 5.256 0 01-5.25-5.25V47M24 38h24.75c2.88 0 5.25-2.355 5.25-5.25 0-2.88-2.37-5.25-5.25-5.25s-5.25 2.355-5.25 5.25v.75" stroke="#404040" stroke-width="2.25" stroke-miterlimit="10" stroke-linecap="round" stroke-linejoin="round"/><path d="M24 33.5h10.965a4.036 4.036 0 000-8.07 4.036 4.036 0 00-4.035 4.035v.57" stroke="#404040" stroke-width="2.25" stroke-miterlimit="10" stroke-linecap="round" stroke-linejoin="round"/><defs><linearGradient id="paint0_linear_75_1880" x1="45.798" y1="15.904" x2="-91.668" y2="56.724" gradientUnits="userSpaceOnUse"><stop stop-color="#FE9C00"/><stop offset="1" stop-color="#F56900"/></linearGradient></defs></svg>