<svg width="80" height="80" fill="none" xmlns="http://www.w3.org/2000/svg"><path d="M63.988 41.352c0 16.3-11.833 31.567-28 36.034-1.1.3-2.3.3-3.4 0-16.167-4.467-28-19.734-28-36.034V26.72c0-2.733 2.067-5.833 4.633-6.867l18.567-7.6a17.29 17.29 0 0113.033 0l18.567 7.6c2.533 1.034 4.633 4.134 4.633 6.867l-.033 14.633z" fill="url(#paint0_linear_75_1891)"/><path d="M69.7 37.067c0 16.3-11.833 31.566-28 36.033-1.1.3-2.3.3-3.4 0-16.166-4.467-28-19.733-28-36.033V22.433c0-2.733 2.067-5.833 4.634-6.866l18.567-7.6a17.29 17.29 0 0113.033 0l18.567 7.6c2.533 1.033 4.633 4.133 4.633 6.866l-.033 14.634z" stroke="#404040" stroke-width="5" stroke-linecap="round" stroke-linejoin="round"/><path d="M39 43.5c5.592 0 10.125-4.365 10.125-9.75S44.592 24 39 24s-10.125 4.365-10.125 9.75S33.408 43.5 39 43.5z" stroke="#404040" stroke-width="2.25" stroke-linecap="round" stroke-linejoin="round"/><path d="M32.28 41.28l-.014 11.07c0 1.35.945 2.01 2.115 1.455L38.4 51.9c.33-.165.885-.165 1.215 0l4.035 1.905c1.155.54 2.115-.105 2.115-1.455V41.01" stroke="#404040" stroke-width="2.25" stroke-linecap="round" stroke-linejoin="round"/><defs><linearGradient id="paint0_linear_75_1891" x1="45.798" y1="15.904" x2="-91.668" y2="56.724" gradientUnits="userSpaceOnUse"><stop stop-color="#FE9C00"/><stop offset="1" stop-color="#F56900"/></linearGradient></defs></svg>