<svg width="24" height="24" fill="none" xmlns="http://www.w3.org/2000/svg"><path d="M10.667 15.43a3.12 3.12 0 100-6.24 3.12 3.12 0 000 6.24z" fill="url(#paint0_linear_278_54)"/><path d="M2.286 10.49c1.97-8.66 14.8-8.65 16.76.01 1.15 5.08-2.01 9.38-4.78 12.04a5.193 5.193 0 01-7.21 0c-2.76-2.66-5.92-6.97-4.77-12.05z" fill="url(#paint1_linear_278_54)"/><path d="M12 13.43a3.12 3.12 0 100-6.24 3.12 3.12 0 000 6.24z" stroke="#292D32" stroke-width="1.5"/><path d="M3.62 8.49c1.97-8.66 14.8-8.65 16.76.01 1.15 5.08-2.01 9.38-4.78 12.04a5.193 5.193 0 01-7.21 0c-2.76-2.66-5.92-6.97-4.77-12.05z" stroke="#292D32" stroke-width="1.5"/><defs><linearGradient id="paint0_linear_278_54" x1="11.874" y1="9.651" x2="-2.265" y2="14.358" gradientUnits="userSpaceOnUse"><stop stop-color="#FE9C00"/><stop offset="1" stop-color="#F56900"/></linearGradient><linearGradient id="paint1_linear_278_54" x1="14.001" y1="5.478" x2="-26.098" y2="16.992" gradientUnits="userSpaceOnUse"><stop stop-color="#FE9C00"/><stop offset="1" stop-color="#F56900"/></linearGradient></defs></svg>