<svg width="22" height="23" fill="none" xmlns="http://www.w3.org/2000/svg"><path d="M10 23c5.523 0 10-4.477 10-10S15.523 3 10 3 0 7.477 0 13s4.477 10 10 10z" fill="url(#paint0_linear_83_1308)"/><path d="M7.054 7H5c.097 4.997 2.436 8 6.536 8h.232v-2.859c1.507.16 2.646 1.338 3.103 2.859H17c-.585-2.274-2.121-3.531-3.08-4.012.959-.593 2.308-2.034 2.63-3.988h-1.934c-.42 1.586-1.663 3.027-2.848 3.163V7H9.834v5.541c-1.199-.32-2.713-1.873-2.78-5.541z" fill="#404040"/><path d="M11 21c5.523 0 10-4.477 10-10S16.523 1 11 1 1 5.477 1 11s4.477 10 10 10z" stroke="#404040" stroke-width="1.5" stroke-linecap="round" stroke-linejoin="round"/><defs><linearGradient id="paint0_linear_83_1308" x1="13.868" y1="4.479" x2="-31.448" y2="19.565" gradientUnits="userSpaceOnUse"><stop stop-color="#FE9C00"/><stop offset="1" stop-color="#F56900"/></linearGradient></defs></svg>