<svg width="22" height="23" fill="none" xmlns="http://www.w3.org/2000/svg"><path d="M10 23c5.523 0 10-4.477 10-10S15.523 3 10 3 0 7.477 0 13s4.477 10 10 10z" fill="url(#paint0_linear_83_1309)"/><path d="M14.492 7a.568.568 0 01.357.117c.073.069.12.166.131.27.012.078.028.256.015.394-.138 1.582-.738 5.419-1.043 7.19-.129.75-.383 1-.63 1.024-.533.055-.94-.383-1.457-.751-.81-.578-1.269-.937-2.055-1.5-.91-.65-.32-1.009.198-1.592.136-.153 2.491-2.481 2.537-2.692.006-.026.011-.125-.043-.176-.053-.052-.133-.035-.19-.02-.082.02-1.377.95-3.884 2.787-.369.275-.7.409-1 .4-.328-.007-.96-.2-1.43-.367-.577-.204-1.035-.311-.996-.657.021-.18.25-.364.686-.553a409.374 409.374 0 015.37-2.511C13.613 7.208 14.145 7.007 14.491 7z" fill="#404040"/><path d="M11 21c5.523 0 10-4.477 10-10S16.523 1 11 1 1 5.477 1 11s4.477 10 10 10z" stroke="#404040" stroke-width="1.5" stroke-linecap="round" stroke-linejoin="round"/><defs><linearGradient id="paint0_linear_83_1309" x1="13.868" y1="4.479" x2="-31.448" y2="19.565" gradientUnits="userSpaceOnUse"><stop stop-color="#FE9C00"/><stop offset="1" stop-color="#F56900"/></linearGradient></defs></svg>