<svg width="36" height="36" fill="none" xmlns="http://www.w3.org/2000/svg"><path d="M24.06 22.325c-.63.615-.99 1.5-.9 2.445.135 1.62 1.62 2.805 3.24 2.805h2.85v1.785A5.653 5.653 0 0123.61 35H6.39a5.653 5.653 0 01-5.64-5.64V19.265a5.653 5.653 0 015.64-5.64h17.22a5.653 5.653 0 015.64 5.64v2.16h-3.03c-.84 0-1.605.33-2.16.9z" fill="url(#paint0_linear_3_27337)"/><path d="M.75 20.615V13.76a4.272 4.272 0 012.76-4.005l11.91-4.5c1.86-.705 3.855.675 3.855 2.67v5.7" fill="url(#paint1_linear_3_27337)"/><path d="M30.838 22.955v3.09c0 .825-.66 1.5-1.5 1.53h-2.94c-1.62 0-3.105-1.185-3.24-2.805-.09-.945.27-1.83.9-2.445a2.99 2.99 0 012.16-.9h3.12c.84.03 1.5.705 1.5 1.53z" fill="url(#paint2_linear_3_27337)"/><path d="M27.06 20.325c-.63.615-.99 1.5-.9 2.445.135 1.62 1.62 2.805 3.24 2.805h2.85v1.785A5.653 5.653 0 0126.61 33H9.39a5.653 5.653 0 01-5.64-5.64V17.265a5.653 5.653 0 015.64-5.64h17.22a5.653 5.653 0 015.64 5.64v2.16h-3.03c-.84 0-1.605.33-2.16.9z" stroke="#404040" stroke-width="2.25" stroke-linecap="round" stroke-linejoin="round"/><path d="M3.75 18.615V11.76a4.272 4.272 0 012.76-4.005l11.91-4.5c1.86-.705 3.855.675 3.855 2.67v5.7m11.563 9.33v3.09c0 .825-.66 1.5-1.5 1.53h-2.94c-1.62 0-3.105-1.185-3.24-2.805-.09-.945.27-1.83.9-2.445a2.99 2.99 0 012.16-.9h3.12c.84.03 1.5.705 1.5 1.53zM10.5 18H21" stroke="#404040" stroke-width="2.25" stroke-linecap="round" stroke-linejoin="round"/><defs><linearGradient id="paint0_linear_3_27337" x1="20.512" y1="15.205" x2="-39.413" y2="41.805" gradientUnits="userSpaceOnUse"><stop stop-color="#FE9C00"/><stop offset="1" stop-color="#F56900"/></linearGradient><linearGradient id="paint1_linear_3_27337" x1="13.595" y1="6.218" x2="-26.691" y2="22.199" gradientUnits="userSpaceOnUse"><stop stop-color="#FE9C00"/><stop offset="1" stop-color="#F56900"/></linearGradient><linearGradient id="paint2_linear_3_27337" x1="28.479" y1="21.88" x2="11.977" y2="28.753" gradientUnits="userSpaceOnUse"><stop stop-color="#FE9C00"/><stop offset="1" stop-color="#F56900"/></linearGradient></defs></svg>