<svg width="40" height="40" fill="none" xmlns="http://www.w3.org/2000/svg"><path d="M.333 26.483V10.517c0-2.217 1.283-2.75 2.85-1.184L7.5 13.65c.65.65 1.716.65 2.35 0l5.966-5.983c.65-.65 1.717-.65 2.35 0l5.984 5.983c.65.65 1.716.65 2.35 0l4.316-4.317c1.567-1.566 2.85-1.033 2.85 1.184V26.5c0 5-3.333 8.333-8.333 8.333H8.666c-4.6-.016-8.333-3.75-8.333-8.35z" fill="url(#paint0_linear_3_27356)"/><path d="M3.333 25.483V9.517c0-2.217 1.283-2.75 2.85-1.184L10.5 12.65c.65.65 1.716.65 2.35 0l5.966-5.983c.65-.65 1.717-.65 2.35 0l5.984 5.983c.65.65 1.716.65 2.35 0l4.316-4.317c1.567-1.566 2.85-1.033 2.85 1.184V25.5c0 5-3.333 8.333-8.333 8.333H11.666c-4.6-.016-8.333-3.75-8.333-8.35z" stroke="#404040" stroke-width="2.25" stroke-linecap="round" stroke-linejoin="round"/><defs><linearGradient id="paint0_linear_3_27356" x1="23.446" y1="9.224" x2="-48.815" y2="38.221" gradientUnits="userSpaceOnUse"><stop stop-color="#FE9C00"/><stop offset="1" stop-color="#F56900"/></linearGradient></defs></svg>