<svg width="39" height="36" fill="none" xmlns="http://www.w3.org/2000/svg"><path d="M14.33 5.795L4.548 11.69c-3.137 1.89-3.137 6.12 0 8.01l9.782 5.895c1.755 1.065 4.647 1.065 6.403 0l9.733-5.895c3.12-1.89 3.12-6.105 0-7.995L20.733 5.81c-1.756-1.08-4.648-1.08-6.403-.015z" fill="url(#paint0_linear_3_27367)"/><path d="M7.15 21.62l-.017 7.035c0 1.905 1.592 3.945 3.542 4.545l5.184 1.59c.894.27 2.373.27 3.283 0l5.183-1.59c1.95-.6 3.543-2.64 3.543-4.545v-6.96" fill="url(#paint1_linear_3_27367)"/><path d="M16.33 3.795L6.548 9.69c-3.137 1.89-3.137 6.12 0 8.01l9.782 5.895c1.755 1.065 4.648 1.065 6.403 0l9.733-5.895c3.12-1.89 3.12-6.105 0-7.995L22.733 3.81c-1.756-1.08-4.648-1.08-6.403-.015z" stroke="#404040" stroke-width="2.25" stroke-linecap="round" stroke-linejoin="round"/><path d="M9.15 19.62l-.017 7.035c0 1.905 1.592 3.945 3.542 4.545l5.184 1.59c.894.27 2.373.27 3.283 0l5.183-1.59c1.95-.6 3.543-2.64 3.543-4.545v-6.96m4.907 2.805v-9" stroke="#404040" stroke-width="2.25" stroke-linecap="round" stroke-linejoin="round"/><defs><linearGradient id="paint0_linear_3_27367" x1="23.421" y1="6.58" x2="-39.377" y2="36.491" gradientUnits="userSpaceOnUse"><stop stop-color="#FE9C00"/><stop offset="1" stop-color="#F56900"/></linearGradient><linearGradient id="paint1_linear_3_27367" x1="21.51" y1="22.609" x2="-19.697" y2="43.88" gradientUnits="userSpaceOnUse"><stop stop-color="#FE9C00"/><stop offset="1" stop-color="#F56900"/></linearGradient></defs></svg>