<svg width="36" height="36" fill="none" xmlns="http://www.w3.org/2000/svg"><path d="M19.5 4v15c0 1.65-1.35 3-3 3H0V10c0-3.315 2.685-6 6-6h13.5z" fill="url(#paint0_linear_3_27316)"/><path d="M30 22v4.5c0 2.49-2.01 4.5-4.5 4.5H24c0-1.65-1.35-3-3-3s-3 1.35-3 3h-6c0-1.65-1.35-3-3-3s-3 1.35-3 3H4.5C2.01 31 0 28.99 0 26.5V22h16.5c1.65 0 3-1.35 3-3V8.5h2.76c1.08 0 2.07.585 2.61 1.515l2.565 4.485H25.5c-.825 0-1.5.675-1.5 1.5v4.5c0 .825.675 1.5 1.5 1.5H30z" fill="url(#paint1_linear_3_27316)"/><path d="M9 34a3 3 0 100-6 3 3 0 000 6z" fill="url(#paint2_linear_3_27316)"/><path d="M21 34a3 3 0 100-6 3 3 0 000 6z" fill="url(#paint3_linear_3_27316)"/><path d="M30 19v3h-4.5c-.825 0-1.5-.675-1.5-1.5V16c0-.825.675-1.5 1.5-1.5h1.935L30 19z" fill="url(#paint4_linear_3_27316)"/><path d="M22.5 3v15c0 1.65-1.35 3-3 3H3V9c0-3.315 2.685-6 6-6h13.5z" stroke="#404040" stroke-width="2.25" stroke-linecap="round" stroke-linejoin="round"/><path d="M33 21v4.5c0 2.49-2.01 4.5-4.5 4.5H27c0-1.65-1.35-3-3-3s-3 1.35-3 3h-6c0-1.65-1.35-3-3-3s-3 1.35-3 3H7.5C5.01 30 3 27.99 3 25.5V21h16.5c1.65 0 3-1.35 3-3V7.5h2.76c1.08 0 2.07.585 2.61 1.515l2.565 4.485H28.5c-.825 0-1.5.675-1.5 1.5v4.5c0 .825.675 1.5 1.5 1.5H33z" stroke="#404040" stroke-width="2.25" stroke-linecap="round" stroke-linejoin="round"/><path d="M12 33a3 3 0 100-6 3 3 0 000 6zm12 0a3 3 0 100-6 3 3 0 000 6zm9-15v3h-4.5c-.825 0-1.5-.675-1.5-1.5V15c0-.825.675-1.5 1.5-1.5h1.935L33 18z" stroke="#404040" stroke-width="2.25" stroke-linecap="round" stroke-linejoin="round"/><defs><linearGradient id="paint0_linear_3_27316" x1="13.521" y1="5.331" x2="-29.909" y2="20.994" gradientUnits="userSpaceOnUse"><stop stop-color="#FE9C00"/><stop offset="1" stop-color="#F56900"/></linearGradient><linearGradient id="paint1_linear_3_27316" x1="20.802" y1="10.164" x2="-42.277" y2="38.163" gradientUnits="userSpaceOnUse"><stop stop-color="#FE9C00"/><stop offset="1" stop-color="#F56900"/></linearGradient><linearGradient id="paint2_linear_3_27316" x1="10.16" y1="28.444" x2="-3.434" y2="32.969" gradientUnits="userSpaceOnUse"><stop stop-color="#FE9C00"/><stop offset="1" stop-color="#F56900"/></linearGradient><linearGradient id="paint3_linear_3_27316" x1="22.16" y1="28.444" x2="8.566" y2="32.969" gradientUnits="userSpaceOnUse"><stop stop-color="#FE9C00"/><stop offset="1" stop-color="#F56900"/></linearGradient><linearGradient id="paint4_linear_3_27316" x1="28.16" y1="15.055" x2="14.059" y2="18.81" gradientUnits="userSpaceOnUse"><stop stop-color="#FE9C00"/><stop offset="1" stop-color="#F56900"/></linearGradient></defs></svg>