<svg width="36" height="36" fill="none" xmlns="http://www.w3.org/2000/svg"><path d="M6.66 5h16.665C28.665 5 30 6.335 30 11.66v9.495c0 5.34-1.335 6.66-6.66 6.66H6.66C1.335 27.83 0 26.495 0 21.17v-9.51C0 6.335 1.335 5 6.66 5z" fill="url(#paint0_linear_3_27297)"/><path d="M9.66 3h16.665C31.665 3 33 4.335 33 9.66v9.495c0 5.34-1.335 6.66-6.66 6.66H9.66C4.335 25.83 3 24.495 3 19.17V9.66C3 4.335 4.335 3 9.66 3zM18 25.83V33M3 19.5h30M11.25 33h13.5" stroke="#404040" stroke-width="2.25" stroke-linecap="round" stroke-linejoin="round"/><defs><linearGradient id="paint0_linear_3_27297" x1="20.802" y1="6.687" x2="-42.563" y2="34.425" gradientUnits="userSpaceOnUse"><stop stop-color="#FE9C00"/><stop offset="1" stop-color="#F56900"/></linearGradient></defs></svg>